<?xml version="1.0" standalone="no"?>
<!DOCTYPE svg PUBLIC "-//W3C//DTD SVG 20010904//EN"
 "http://www.w3.org/TR/2001/REC-SVG-20010904/DTD/svg10.dtd">
<svg version="1.0" xmlns="http://www.w3.org/2000/svg"
 width="2095.000000pt" height="2095.000000pt" viewBox="0 0 2095.000000 2095.000000"
 preserveAspectRatio="xMidYMid meet">
<metadata>
Created by potrace 1.14, written by Peter Selinger 2001-2017
</metadata>
<g transform="translate(0.000000,2095.000000) scale(0.100000,-0.100000)"
fill="#000000" stroke="none">
<path d="M6205 18535 c-2250 -1328 -4253 -2510 -4453 -2626 -318 -187 -363
-215 -358 -233 3 -12 6 -2337 6 -5167 l0 -5147 689 -406 c379 -223 692 -406
695 -406 8 0 2612 -1535 2661 -1569 51 -35 1974 -1168 1997 -1176 17 -7 18
247 20 5205 l3 5212 4478 2641 c2462 1453 4477 2643 4477 2646 -1 8 -2007
1132 -2031 1138 -12 3 -1549 -898 -4483 -2628 l-4466 -2634 0 -4017 c0 -2210
-2 -4018 -6 -4018 -3 0 -457 267 -1010 593 l-1004 592 0 4000 0 4000 4460
2630 c2453 1447 4459 2632 4459 2635 0 3 -261 151 -581 330 -319 179 -779 436
-1022 573 -242 136 -440 247 -441 246 0 0 -1840 -1087 -4090 -2414z"/>
<path d="M13930 13795 c-2445 -1443 -4447 -2625 -4450 -2627 -3 -2 -3 -2381 0
-5287 l5 -5284 505 -298 c278 -164 512 -298 520 -299 8 0 238 132 510 294 962
570 6450 3808 6497 3833 26 13 494 288 1040 610 l993 586 0 3513 c0 1933 -3
3514 -6 3514 -4 0 -1359 -797 -3010 -1772 l-3004 -1771 0 -1184 0 -1183 43 26
c23 15 60 39 82 54 22 15 893 530 1935 1145 1042 614 1905 1123 1918 1131 l22
14 0 -1158 0 -1158 -2982 -1759 c-1641 -968 -2998 -1768 -3015 -1778 l-33 -19
0 3534 0 3533 4025 2374 4025 2374 0 502 0 502 -567 318 c-313 175 -577 324
-588 331 -18 11 -506 -275 -4465 -2611z"/>
</g>
</svg>
